<svg width="25" height="25" viewBox="0 0 25 25" fill="none" xmlns="http://www.w3.org/2000/svg">
<g clip-path="url(#clip0)">
<path d="M18.2364 14.9033L18.2271 14.9814C15.9364 13.8397 15.6969 13.6876 15.401 14.1314C15.1958 14.4387 14.5979 15.1356 14.4177 15.3418C14.2354 15.5449 14.0542 15.5606 13.7448 15.4199C13.4323 15.2637 12.4292 14.9356 11.2417 13.8731C10.3167 13.0449 9.69582 12.0293 9.51249 11.7168C9.20728 11.1897 9.84582 11.1147 10.4271 10.0147C10.5312 9.79597 10.4781 9.62409 10.401 9.46889C10.3229 9.31264 9.70103 7.78139 9.44062 7.17097C9.19062 6.56264 8.93332 6.63972 8.74062 6.63972C8.14062 6.58764 7.70207 6.59597 7.31562 6.99805C5.63437 8.84597 6.05832 10.7522 7.49687 12.7793C10.3239 16.4793 11.8302 17.1606 14.5844 18.1064C15.3281 18.3428 16.0062 18.3095 16.5427 18.2324C17.1406 18.1376 18.3833 17.4814 18.6427 16.747C18.9083 16.0126 18.9083 15.4033 18.8302 15.2626C18.7531 15.122 18.5489 15.0439 18.2364 14.9033Z" fill="#4CAF50"/>
<path d="M21.375 3.59267C13.3656 -4.15004 0.110417 1.46559 0.105208 12.3885C0.105208 14.5718 0.677083 16.701 1.76667 18.5812L0 25L6.59896 23.2791C14.8333 27.727 24.9958 21.8208 25 12.3948C25 9.08642 23.7083 5.97288 21.3594 3.6333L21.375 3.59267ZM22.9188 12.3604C22.9125 20.3114 14.1844 25.277 7.28125 21.2187L6.90625 20.9958L3 22.0114L4.04688 18.2145L3.79792 17.8239C-0.497917 10.9854 4.4375 2.04788 12.575 2.04788C15.3396 2.04788 17.9344 3.126 19.8885 5.07913C21.8417 7.01559 22.9188 9.61038 22.9188 12.3604Z" fill="#4CAF50"/>
</g>
<defs>
<clipPath id="clip0">
<rect width="25" height="25" fill="white"/>
</clipPath>
</defs>
</svg>
